<?xml version="1.0" encoding="utf-8"?>
<svg version="1.1" xmlns:xlink="http://www.w3.org/1999/xlink" width="10px" height="10px" xmlns="http://www.w3.org/2000/svg">
  <g transform="matrix(1 0 0 1 -221 -114 )">
    <path d="M 0.083840928819446 4.96038630756579  C 0.083840928819446 7.6266837993421  1.971005859375 9.48900010279604  4.67339583333334 9.48900010279604  C 7.57576139322917 9.48900010279604  9.45115646701389 7.6593984375  9.45115646701389 4.82458367598684  C 9.45115646701389 2.13083110608552  7.59141731770833 0.321215871710523  4.82240592447916 0.321215871710523  C 2.03174240451389 0.321215871710523  0.083840928819446 2.22802826891448  0.083840928819446 4.96038630756579  Z M 2.83919498697917 4.92346402138156  C 2.83919498697917 3.35463291529605  3.60145594618055 2.34026798930921  4.78321028645833 2.34026798930921  C 6.10409255642361 2.34026798930921  6.69580240885416 3.61897995476973  6.69580240885416 4.88506897615131  C 6.69580240885416 6.45390008223683  5.94531119791666 7.46700267269736  4.78321028645833 7.46700267269736  C 3.60145594618055 7.46700267269736  2.83919498697917 6.46862695312498  2.83919498697917 4.92346402138156  Z " fill-rule="nonzero" fill="#fbfbfb" stroke="none" transform="matrix(1 0 0 1 221 114 )" />
  </g>
</svg>