<?xml version="1.0" encoding="utf-8"?>
<svg version="1.1" xmlns:xlink="http://www.w3.org/1999/xlink" width="100px" height="100px" xmlns="http://www.w3.org/2000/svg">
  <g transform="matrix(1 0 0 1 -183 -40 )">
    <path d="M 99.9660662286932 50  C 99.9660662286932 22.4043916459517  77.5956651722301 0.0338770640980111  50.0000568181818 0.0338770640980111  C 22.4044484641335 0.0338770640980111  0.033820245916191 22.4045052823153  0.033820245916191 50  C 0.033820245916191 77.5954948286577  22.4044484641335 99.966122935902  50.0000568181818 99.966122935902  C 77.5956651722301 99.966122935902  99.9660662286932 77.5954947176847  99.9660662286932 50  Z M 73.0765700461648 34.8518613503196  L 76.7382919034091 34.5039154607599  L 78.2153586647727 31.2510073020242  L 79.6904949396307 34.5039154607599  L 83.352216796875 34.8518613503196  L 80.6023765980113 37.209921653054  L 81.3901379394531 40.6783654785156  L 78.2153586647727 38.8839002574574  L 75.0387624289773 40.6783654785156  L 75.8264102450284 37.209921653054  L 73.0765700461648 34.8518613503196  Z M 72 67  L 72 45  L 83 45  L 83 67  L 72 67  Z M 59.1293217329546 22.0169270463423  L 62.7910435901989 21.6690946821733  L 64.2681103515625 18.4155051491477  L 65.7431329900568 21.6690946821733  L 69.4068989701705 22.0169270463423  L 66.6551282848012 24.3753280362216  L 67.4408456143466 27.8430904873935  L 64.2682238769531 26.0491931152344  L 61.0934446022728 27.8430904873935  L 61.8791619318182 24.3753280362216  L 59.1293217329546 22.0169270463423  Z M 58 67  L 58 33  L 69.7794873046875 33  L 69 41.9542049893466  L 69 67  L 58 67  Z M 44.8611545632102 9.7675048828125  L 48.5249205433239 9.41944546786222  L 49.9999431818182 6.16619662198153  L 51.4770099431818 9.41944546786222  L 55.1388454367898 9.7675048828125  L 52.3870747514205 12.1257923473011  L 53.1748360928622 15.5934412730824  L 50.0000568181818 13.7997710626776  L 46.8233469460227 15.5934412730824  L 47.6109947620739 12.1257923473011  L 44.8611545632102 9.7675048828125  Z M 45 67.0612734153054  L 45 20  L 55 20  L 55 67.0612733043324  L 52.7918003151634 67.0612734153054  L 52.7918003151634 61.4945930619673  C 52.7918003151634 59.9515482954546  51.5352658913352 58.6896766246449  49.9999431818182 58.6896766246449  C 48.4646204723011 58.6896766246449  47.208086048473 59.9515482954546  47.208086048473 61.4945930619673  L 47.208086048473 67.0612734153054  L 45 67.0612734153054  Z M 30.5932147771662 22.0169270463423  L 34.2547093616832 21.6690946821733  L 35.7318896484375 18.4155051491477  L 37.2070259232955 21.6690946821733  L 40.8706783780185 22.0169270463423  L 38.1190213290128 24.3753280362216  L 38.9066691450639 27.8430904873935  L 35.7320033957742 26.0491931152344  L 32.5573376464844 27.8430904873935  L 33.3429413396662 24.3753280362216  L 30.5932147771662 22.0169270463423  Z M 31 67  L 31 41.9542051003196  L 30.2201721191406 33  L 42 33  L 42 67  L 31 67  Z M 16.6475561523438 34.8518613503196  L 20.3092780095881 34.5039154607599  L 21.784414284446 31.2510073020242  L 23.2614810458097 34.5039154607599  L 26.923202903054 34.8518613503196  L 24.1733627041903 37.209921653054  L 24.9590800337358 40.6783654785156  L 21.784414284446 38.8839002574574  L 18.6097485351563 40.6783654785156  L 19.3953522283381 37.209921653054  L 16.6475561523438 34.8518613503196  Z M 17 67  L 17 45  L 28 45  L 28 67  L 17 67  Z M 84.067754350142 70  L 84.067754350142 72.7159622469815  L 79 72.7159622469815  L 79 86.9464276677912  C 79.3277861993963 87.4887871759588  78.8708233087713 87.9288297895952  78.3096129261364 88  L 21.6901600230824 88  C 21.1290631658381 87.9288296786222  20.6721002752131 87.4887870649858  21 86.9464275568182  L 21 72.7159622469815  L 15.9321321244673 72.7159622469815  L 15.9321321244673 70  L 84.067754350142 70  Z " fill-rule="nonzero" fill="#fbfbfb" stroke="none" transform="matrix(1 0 0 1 183 40 )" />
  </g>
</svg>