<?xml version="1.0" encoding="utf-8"?>
<svg version="1.1" xmlns:xlink="http://www.w3.org/1999/xlink" width="5px" height="5px" xmlns="http://www.w3.org/2000/svg">
  <g transform="matrix(1 0 0 1 -87 -53 )">
    <path d="M 0.041920464409723 2.48019315378289  C 0.041920464409723 3.81334189967105  0.9855029296875 4.74450005139802  2.33669791666667 4.74450005139802  C 3.78788069661458 4.74450005139802  4.72557823350694 3.82969921875  4.72557823350694 2.41229183799342  C 4.72557823350694 1.06541555304276  3.79570865885416 0.160607935855262  2.41120296223958 0.160607935855262  C 1.01587120225695 0.160607935855262  0.041920464409723 1.11401413445724  0.041920464409723 2.48019315378289  Z M 1.41959749348959 2.46173201069078  C 1.41959749348959 1.67731645764803  1.80072797309028 1.1701339946546  2.39160514322917 1.1701339946546  C 3.05204627821181 1.1701339946546  3.34790120442708 1.80948997738487  3.34790120442708 2.44253448807566  C 3.34790120442708 3.22695004111842  2.97265559895833 3.73350133634868  2.39160514322917 3.73350133634868  C 1.80072797309028 3.73350133634868  1.41959749348959 3.23431347656249  1.41959749348959 2.46173201069078  Z " fill-rule="nonzero" fill="#7f4400" stroke="none" transform="matrix(1 0 0 1 87 53 )" />
  </g>
</svg>