<?xml version="1.0" encoding="utf-8"?>
<svg version="1.1" xmlns:xlink="http://www.w3.org/1999/xlink" width="50px" height="50px" xmlns="http://www.w3.org/2000/svg">
  <g transform="matrix(1 0 0 1 -68 -16 )">
    <path d="M 49.9830331143466 25  C 49.9830331143466 11.2021958229759  38.7978325861151 0.0169385320490055  25.0000284090909 0.0169385320490055  C 11.2022242320668 0.0169385320490055  0.0169101229580955 11.2022526411577  0.0169101229580955 25  C 0.0169101229580955 38.7977474143288  11.2022242320668 49.983061467951  25.0000284090909 49.983061467951  C 38.7978325861151 49.983061467951  49.9830331143466 38.7977473588423  49.9830331143466 25  Z M 36.5382850230824 17.4259306751598  L 38.3691459517045 17.25195773038  L 39.1076793323864 15.6255036510121  L 39.8452474698153 17.25195773038  L 41.6761083984375 17.4259306751598  L 40.3011882990057 18.604960826527  L 40.6950689697265 20.3391827392578  L 39.1076793323864 19.4419501287287  L 37.5193812144886 20.3391827392578  L 37.9132051225142 18.604960826527  L 36.5382850230824 17.4259306751598  Z M 36 33.545512972745  L 36 22.3792768443715  L 41 22.3792768443715  L 41 33.545512972745  L 36 33.545512972745  Z M 29.5646608664773 11.0084635231712  L 31.3955217950994 10.8345473410866  L 32.1340551757812 9.20775257457386  L 32.8715664950284 10.8345473410866  L 34.7034494850852 11.0084635231712  L 33.3275641424006 12.1876640181108  L 33.7204228071733 13.9215452436967  L 32.1341119384766 13.0245965576172  L 30.5467223011364 13.9215452436967  L 30.9395809659091 12.1876640181108  L 29.5646608664773 11.0084635231712  Z M 29 33.5455129172585  L 29 16.0584487082741  L 34.8897436523438 16.0584487082741  L 34 20.9771024946733  L 34 33.5455129172585  L 29 33.5455129172585  Z M 22.4305772816051 4.88375244140625  L 24.2624602716619 4.70972273393111  L 24.9999715909091 3.08309831099077  L 25.7385049715909 4.70972273393111  L 27.5694227183949 4.88375244140625  L 26.1935373757102 6.06289617365057  L 26.5874180464311 7.79672063654119  L 25.0000284090909 6.89988553133878  L 23.4116734730114 7.79672063654119  L 23.8054973810369 6.06289617365057  L 22.4305772816051 4.88375244140625  Z M 23 33.5306367076527  L 23 9.65540360884233  L 27 9.65540360884233  L 27 33.5306366521662  L 26.3959001575817 33.5306367076527  L 26.3959001575817 30.7472965309837  C 26.3959001575817 29.9757741477273  25.7676329456676 29.3448383123224  24.9999715909091 29.3448383123224  C 24.2323102361506 29.3448383123224  23.6040430242365 29.9757741477273  23.6040430242365 30.7472965309837  L 23.6040430242365 33.5306367076527  L 23 33.5306367076527  Z M 15.2966073885831 11.0084635231712  L 17.1273546808416 10.8345473410866  L 17.8659448242188 9.20775257457386  L 18.6035129616477 10.8345473410866  L 20.4353391890092 11.0084635231712  L 19.0595106645064 12.1876640181108  L 19.453334572532 13.9215452436967  L 17.8660016978871 13.0245965576172  L 16.2786688232422 13.9215452436967  L 16.6714706698331 12.1876640181108  L 15.2966073885831 11.0084635231712  Z M 16 33.545512972745  L 16 20.9771025501598  L 15.1100860595703 16.0584487637607  L 21 16.0584487637607  L 21 33.545512972745  L 16 33.545512972745  Z M 8.32377807617187 17.4259306751598  L 10.154639004794 17.25195773038  L 10.892207142223 15.6255036510121  L 11.6307405229048 17.25195773038  L 13.461601451527 17.4259306751598  L 12.0866813520952 18.604960826527  L 12.4795400168679 20.3391827392578  L 10.892207142223 19.4419501287287  L 9.30487426757812 20.3391827392578  L 9.69767611416903 18.604960826527  L 8.32377807617187 17.4259306751598  Z M 9 33.545512972745  L 9 22.3792768443715  L 14 22.3792768443715  L 14 33.545512972745  L 9 33.545512972745  Z M 42.033877175071 35  L 42.033877175071 36.3579811234908  L 39.6638930996982 36.3579811234908  L 39.6638930996982 43.4732138338956  C 39.6638930996982 43.7443935879794  39.4354116543857 43.9644148947976  39.1548064630682 44  L 10.8450800115412 44  C 10.564531582919 43.9644148393111  10.3360501376065 43.7443935324929  10.3360501376065 43.4732137784091  L 10.3360501376065 36.3579811234908  L 7.96606606223367 36.3579811234908  L 7.96606606223367 35  L 42.033877175071 35  Z " fill-rule="nonzero" fill="#7f4400" stroke="none" transform="matrix(1 0 0 1 68 16 )" />
  </g>
</svg>