<?xml version="1.0" encoding="utf-8"?>
<svg version="1.1" xmlns:xlink="http://www.w3.org/1999/xlink" width="141px" height="135px" xmlns="http://www.w3.org/2000/svg">
  <g transform="matrix(1 0 0 1 -325 -270 )">
    <path d="M 66.4568674698795 126.611320754717  C 65.5128343297065 125.483892805101  64.1223122214854 124.826142035825  62.6515662650602 124  L 15.289156626506 124  C 12.587086852876 124.811320754717  10.3966265060241 122.621739757663  11 119.920754716981  L 11 56.1735849056604  L 11.0081927710843 55.5962264150943  L 139 55.9358490566038  L 139 45.3056603773585  L 140.252530120482 45.9169811320755  L 139.742891566265 45  C 139.759735768277 44.8533117741736  139.759735768277 44.7051787918642  139 44.5584905660377  L 139 25.8792452830189  C 139.687132674155 17.6924687812491  133.051616201255 11.0747596038669  124.861445783133 11  L 100.636626506024 11  L 100.636626506024 5.46792452830189  C 100.647947020541 5.33060887070036  100.653614457831 5.19288599466998  100.653614457831 5.05510486026303  C 100.653614457831 2.27909245733995  98.4023079902335 0.0286897659234028  95.6251807228916 0.0286897659234028  C 92.8480534555497 0.0286897659234028  90.5967469879518 2.27909245733995  90.5967469879518 5.05510486026303  C 90.5967469879518 5.19288599466998  90.602414425242 5.33060887070036  90.6137349397591 5.46792452830189  L 90.6137349397591 11  L 50.9638554216867 11  L 50.9638554216867 5.26415094339623  C 50.9638554216867 2.45062485935256  48.682125893716 0.169811320754716  45.8674698795181 0.169811320754716  C 43.0528138653202 0.169811320754716  40.7710843373494 2.45062485935256  40.7710843373494 5.26415094339623  L 40.7710843373494 11  L 15.289156626506 11  C 7.05934784645044 11.0564113013514  0.392417892235512 17.7206648485193  1 25.9471698113208  L 1 119.920754716981  C 0.373713650800639 128.160519646852  7.04610384302375 134.845424204947  15.289156626506 134  L 62.3457831325301 134  C 64.874320381858 134.929587188696  67.0829617970456 133.166250589329  67.5780722891566 130.68679245283  C 67.8567911116051 129.228007877172  67.4426147792162 127.722516737946  66.4568674698795 126.611320754717  Z M 11 45  L 11 25.9471698113208  C 10.4881918199548 23.3127231201472  12.6520622573473 21.2248255860078  15.289156626506 22  L 40.9409638554217 22  L 40.9409638554217 31.4150943396226  C 40.9409638554217 34.2286204236663  43.2226933833925 36.5094339622641  46.0373493975903 36.5094339622641  C 48.8520054117883 36.5094339622641  51.133734939759 34.2286204236663  51.133734939759 31.4150943396226  C 51.133734939759 31.4150943396226  51.133734939759 31.4150943396226  52 31.4150943396226  L 52 22  L 90.613734939759 22  L 90.613734939759 31.7207547169811  C 90.602414425242 31.8580703745827  90.5967469879518 31.995793250613  90.5967469879518 32.13357438502  C 90.5967469879518 34.9095867879431  92.8480534555496 37.1599894793596  95.6251807228916 37.1599894793596  C 98.4023079902335 37.1599894793596  100.653614457831 34.9095867879431  100.653614457831 32.13357438502  C 100.653614457831 31.995793250613  100.647947020541 31.8580703745827  100 31.7207547169811  L 100 22  L 124.861445783133 22  C 127.550302561271 21.2263502841175  129.735303287876 23.3953063278809  129 26.0830188679245  L 129 45.3735849056604  L 129.176385542169 46.0188679245283  L 10.9402409638554 45.6792452830189  L 11 45  Z M 119.900963855422 108  L 120.002891566265 108.135849056604  L 113.683373493976 108.135849056604  L 113.10578313253 107.558490566038  L 113.10578313253 99.8830188679245  C 113.117103647047 99.745703210323  113.122771084337 99.6079803342926  113.122771084337 99.4701991998857  C 113.122771084337 96.6941867969626  110.87146461674 94.443784105546  108.094337349398 94.443784105546  C 105.317210082056 94.443784105546  103.065903614458 96.6941867969626  103.065903614458 99.4701991998857  C 103.065903614458 99.6079803342926  103.071571051748 99.745703210323  103 99.8830188679245  L 103 111.667924528302  C 103.050969581082 112.029486018532  103.050969581082 112.393155490902  103.082891566265 112.754716981132  L 103.082891566265 113.162264150943  C 103.082891566265 115.938276553867  105.334198033863 118.188679245283  108.111325301205 118  L 119.900963855422 118  L 119.900963855422 118.188679245283  C 122.71561986962 118.188679245283  124.99734939759 115.907865706685  124.99734939759 113.094339622641  C 124.99734939759 110.280813538598  122.71561986962 108  119.900963855422 108  Z " fill-rule="nonzero" fill="#0ba194" stroke="none" transform="matrix(1 0 0 1 325 270 )" />
  </g>
</svg>