<?xml version="1.0" encoding="utf-8"?>
<svg version="1.1" xmlns:xlink="http://www.w3.org/1999/xlink" width="129px" height="75px" xmlns="http://www.w3.org/2000/svg">
  <g transform="matrix(1 0 0 1 -346 -341 )">
    <path d="M 91.4447839016093 0.647711591556212  C 91.433387941421 0.647711591556212  91.4219919818604 0.647716818613787  91.4105960264901 0.647727272727289  C 70.9226073051958 0.685334069367654  54.3337748344903 17.2651887716024  54.3337748344903 37.7044827297286  C 54.3337748344903 58.1703982887992  70.9642319270669 74.7613009115468  91.4789403974042 74.7613009115468  C 111.993648867742 74.7613009115468  128.624105960318 58.1703982887992  128.624105960318 37.7044827297286  C 128.605254117745 17.2331165857356  111.965027485548 0.647711591556212  91.4447839016093 0.647711591556212  Z M 117.313112582781 37.7045454545455  C 117.294257397527 51.9627703248935  105.702826453192 63.5113760442446  91.4105960264901 63.5113636363636  C 77.1050536912399 63.5113636363734  65.5081020112278 51.9419945581373  65.5081020112278 37.6704545454643  C 65.5081020112278 23.3989145327913  77.1050536912399 11.8295454545552  91.4106185675193 11.8295454545552  C 105.716183443799 11.8295454545552  117.313135123811 23.3989145327913  117.313135123811 37.6704545454643  C 117.313135123811 37.6818181855265  117.313127610133 37.6931818243722  117.313112582781 37.7045454545455  Z M 5.98013245033112 36.8522727272727  C 5.98013245033112 36.8522727272727  5.98013245033112 36.8522727272727  5.98013245033113 37  L 33.6937748344371 37  C 33.6937748344371 36.8522727272727  33.6937748344371 36.8522727272727  33.6937748344371 36.8522727272727  C 36.5246913666823 36.8522727272727  38.8196026490066 34.5628197434529  38.8196026490066 31.7386363636363  C 38.8196026490066 28.9144529838198  36.5246913666823 26.625  33.6937748344371 26.625  C 33.6937748344371 26.625  33.6937748344371 26.625  33.6937748344371 27  L 5.98013245033112 27  C 5.98013245033112 26.625  5.98013245033112 26.625  5.98013245033112 26.625  C 3.14921591808586 26.625  0.854304635761589 28.9144529838198  0.854304635761589 31.7386363636363  C 0.854304635761589 34.5628197434529  3.14921591808586 36.8522727272727  5.98013245033112 36.8522727272727  Z M 5.5358940397351 14  L 33.317880794702 14  C 33.317880794702 13.5  33.317880794702 13.5  33.317880794702 13.5  C 36.1487973269472 13.5  38.4437086092715 11.2105470161802  38.4437086092715 8.38636363636364  C 38.4437086092715 5.56218025654708  36.1487973269472 3.27272727272728  33.317880794702 3.27272727272728  C 33.317880794702 3.27272727272728  33.317880794702 3.27272727272728  33.317880794702 4  L 5.5358940397351 4  C 5.5358940397351 3.27272727272728  5.5358940397351 3.27272727272728  5.5358940397351 3.27272727272728  C 2.70497750748984 3.27272727272728  0.410066225165566 5.56218025654708  0.410066225165566 8.38636363636364  C 0.410066225165566 11.2105470161802  2.70497750748984 13.5  5.5358940397351 13.5  C 5.5358940397351 13.5  5.5358940397351 13.5  5.5358940397351 14  Z " fill-rule="nonzero" fill="#0ba194" stroke="none" transform="matrix(1 0 0 1 346 341 )" />
  </g>
</svg>