<?xml version="1.0" encoding="utf-8"?>
<svg version="1.1" xmlns:xlink="http://www.w3.org/1999/xlink" width="155px" height="146px" xmlns="http://www.w3.org/2000/svg">
  <g transform="matrix(1 0 0 1 -598 -270 )">
    <path d="M 154 85.1065182742058  C 154.165615819927 81.722391630149  152.120759275269 78.66008901934  149 77.4204762686126  L 149 36.7492336061237  C 149.017542870956 34.4795839163067  148.143134820752 32.2903261605085  146.554056241772 30.6739339696151  C 139.8901110041 24.1645008230525  130.962680754886 20.5102529551678  121.660342839258 20.4842381013241  C 120.867941378204 20.4680487288509  120.075264822832 20.4972764884229  119.286187885593 20.5717785107158  C 109.092513671153 7.70875500367896  93.6044896735715 0.212621560296779  77.2214202556891 0.212621560296779  C 61.1134931170146 0.212621560296779  45.8552376027096 7.46020400468368  35.64959548517 19.9589960462575  C 35.3224184920473 20.3379085212604  34.8394643194892 20.544571536781  34.3403188195359 20.5192543052091  L 32.7691868207749 20.5192543052091  C 24.4811668642661 20.5356089955837  16.4573164768062 23.4450221538797  10.075058216526 28.7480463674905  C 7.08654681013585 31.1877980099389  5.34958444485377 34.8454422131785  6 38.7101372114915  L 6 77.4204762686126  C 2.18043970636817 78.6305434064988  0.12295000932344 81.711764965748  1 85.1065182742058  L 1 136.090013217621  C 0.207952318279501 136.190589107364  0.206007562092243 136.29123112511  0.206007562092243 136.391882592753  C 0.206007562092243 140.594828543662  3.52994482564037 144.04022426675  7.71836021838459 144  L 20.8460407857715 144  C 25.0344561785157 144.04022426675  28.3583934420638 140.594828543662  28.3583934420638 136.391882592753  C 28.3583934420638 136.291231125109  28.3564486858765 136.190589107364  28.3525602687215 136.090013217621  L 28.3525602687215 132.85102047783  C 28.2733390879828 130.67202920921  29.9521324610768 128.832428451615  32.1232768656909 128  L 122.236424572137 128  C 124.392645473673 128.823127952216  126.061068397196 130.652812889623  125.97222725806 132.816004474586  L 125.97222725806 137.805803797077  C 125.968338835741 137.906379753521  125.966394076971 138.0070218381  125.966394076971 138.107673372595  C 125.966394076971 142.31061932652  129.290331345123 145.75601505094  133.47874674101 145  L 146.606427308397 145  C 150.794842704284 145.75601505094  154.118779972437 142.31061932652  154.118779972437 138.107673372595  C 154.118779972437 138.0070218381  154.116835213666 137.906379753521  154 137.805803797077  L 154 85.1065182742058  Z M 14.5440558352048 35.2610478503157  L 14.5615127907277 35.2610478503157  C 18.8052519258626 31.7637193494953  23.9620320706949 29.5637040162693  29.4174385567516 28.9231269856321  C 30.528499033802 28.7779968117639  31.6491050561397 28.7194612716131  32.7691868207749 28.7480463674905  C 33.8365528842258 28.7440872731734  34.903241209246 28.8025466775355  35.9638216848654 28.9231269856321  C 37.4012740479198 29.1231953981833  38.8366452901656 28.5433693017751  39.7345384818916 27.3999252265809  C 41.0501014586819 25.6730151892947  42.4913351150262 24.0461546561438  44.0464229006944 22.5326821160836  C 52.761299642975 13.5568880991208  64.7229733481477 8.49406924198829  77.2147647299878 8.49406924198829  C 89.706556111828 8.49406924198829  101.668229817001 13.5568880991208  110.383106559281 22.5326821160836  C 111.896136214258 24.0706177538558  113.318391524193 25.6957945724963  114.642619911459 27.3999252265809  C 115.558085532801 28.5404489017496  117.001358533336 29.1181181571967  118.448250819588 28.9231269856321  C 119.508890206682 28.8032512271622  120.575537806471 28.74479405839  121.642885883735 28.7480463674905  C 122.77759239397 28.7480463674905  123.842470682 28.7480463674905  124.977176992178 28.9231269856321  C 130.432282564317 29.5811224657854  135.583382978662 31.799533588206  139.81564580268 35.3135720558224  C 140.908133077483 36.1918105580174  141.549104210941 37.516072093889  141 38.9202340335182  L 141 77  L 13 77  L 13 38.7626614169982  C 12.8822101512994 37.404147945894  13.4959623366211 36.1217586914434  14.5440558352048 35.2610478503157  Z M 146 89.2034063037249  L 146 133.743931971443  C 146.799837191507 135.913648143826  145.121056571388 137.746128845189  142.957909600145 137.840820000962  L 137.319291560185 137.840820000962  C 135.15614466829 137.746128738046  133.47736416713 135.913648068859  133.566031918738 133.743931971443  L 133.566031918738 128.719116445067  C 133.541921398533 127.661738953284  133.347380242371 126.615239774657  132.989950185859 125.620188320175  C 131.927375943701 122.659422077953  129.144423195133 120.670770138278  126.007141369163 120  L 28.2478181354707 120  C 25.110536309501 120.670770138278  22.3275835609329 122.659422077953  21.2650093187744 125.620188320175  C 20.9590945391443 126.623327903486  20.8233689024013 127.67087924836  20.8634977412943 128.719116445067  L 20.8634977412943 133.79645617695  C 20.8634977412943 136.002472808229  19.1177955871344 136.054997013736  17.1102380998477 136.054997013736  L 11.5239909264565 136.054997013736  C 9.48151932806732 136.054997013736  7.77073128500994 136.054997013736  8 133.7089159682  L 8 89.2034063037249  C 7.71059981643102 87.0442778006156  9.37377380178771 85.2288324963869  11.5239909264565 85  L 142.975366755724 85  C 145.138513647619 85.2012095371216  146.817294148779 87.033690206309  146 89.2034063037249  Z " fill-rule="nonzero" fill="#e6b300" stroke="none" fill-opacity="0.996078431372549" transform="matrix(1 0 0 1 598 270 )" />
  </g>
</svg>