<?xml version="1.0" encoding="utf-8"?>
<svg version="1.1" xmlns:xlink="http://www.w3.org/1999/xlink" width="77px" height="77px" xmlns="http://www.w3.org/2000/svg">
  <g transform="matrix(1 0 0 1 -690 -339 )">
    <path d="M 0.101025438630917 38.352087321771  C 0.101025438630917 38.3530123779642  0.101025472212399 38.3539374341599  0.10102553937538 38.3548624903508  C 0.101025472212399 38.3557875465416  0.101025438630917 38.3567126027373  0.101025438630917 38.3576376589306  C 0.101025438630917 59.4677543460002  17.2141562584629 76.5808851658323  38.3242729455326 76.5808851658323  C 59.4343896326023 76.5808851658323  76.5475204524342 59.4677543460002  76.5475204524342 38.3576376589306  C 76.5475204524342 38.3567126027373  76.5475204188527 38.3557875465416  76.5475203516898 38.3548624903508  C 76.5475204188527 38.3539374341599  76.5475204524342 38.3530123779642  76.5475204524342 38.352087321771  C 76.5475204524342 17.2419706347013  59.4343896326023 0.128839814869317  38.3242729455326 0.128839814869317  C 17.2141562584629 0.128839814869317  0.101025438630917 17.2419706347013  0.101025438630917 38.352087321771  Z " fill-rule="nonzero" fill="#fcfcfc" stroke="none" transform="matrix(1 0 0 1 690 339 )" />
  </g>
</svg>