<?xml version="1.0" encoding="utf-8"?>
<svg version="1.1" xmlns:xlink="http://www.w3.org/1999/xlink" width="85px" height="85px" xmlns="http://www.w3.org/2000/svg">
  <g transform="matrix(1 0 0 1 -686 -335 )">
    <path d="M 84.0255855059134 42.3556071432782  C 83.9870673137699 65.3701344850291  65.3397019853534 84.0174998134456  42.3251746436025 84.0560180055891  C 42.3193452267818 84.0560204492958  42.3135158095547 84.0560216711491  42.3076863922217 84.0560216711491  C 19.2675248923173 84.0560216711491  0.589783612970012 65.3782803918018  0.589783612970012 42.3381188918974  C 0.589783612970012 19.297957391993  19.2675248923173 0.620216112645699  42.3076863922217 0.620216112645699  C 65.3478478921261 0.620216112645699  84.0255891714734 19.297957391993  84.0255891714734 42.3381188918974  C 84.0255891714734 42.3439483092599  84.02558794962 42.349777726428  84.0255855059134 42.3556071432782  Z M 76.679036718667 42.3556071432782  C 76.6597725333997 23.3876448178871  61.2931247054378 8.01317286096544  42.3251746436025 7.98425335172804  C 42.3193440719163 7.98425038452689  42.3135134995584 7.98424890092627  42.3076829271171 7.98424890092627  C 23.3249083970051 7.98424890092627  7.93632913556692 23.3728281623645  7.93632913556692 42.3556026924765  C 7.93632913556692 61.3383772225885  23.3249083970051 76.7269564840267  42.3076829271171 76.7269564840267  C 61.2904574572291 76.7269564840267  76.6790367186673 61.3383772225885  76.6790367186673 42.3556026924765  Z " fill-rule="nonzero" fill="#e6b300" stroke="none" fill-opacity="0.996078431372549" transform="matrix(1 0 0 1 686 335 )" />
  </g>
</svg>