<?xml version="1.0" encoding="utf-8"?>
<svg version="1.1" xmlns:xlink="http://www.w3.org/1999/xlink" width="37px" height="37px" xmlns="http://www.w3.org/2000/svg">
  <g transform="matrix(1 0 0 1 -710 -359 )">
    <path d="M 3.6278560076409 15  L 15 15  L 15 3.7466192932187  C 15.0512864508938 1.96790937633274  16.531741358899 0.590381990650526  18.3150712839405 0.590381990650526  C 20.098401208982 0.590381990650526  21.5788561169873 1.96790937633274  21 3.74661929321872  L 21 15  L 33.0022865602401 15  C 33.0837015858266 15.0358944634762  33.1653016191605 15.0329557156502  33.2469281115401 15.0329557156502  C 35.1251816385536 15.0329557156502  36.6478069654083 16.5555810425049  36.6478069654083 18.4338345695184  C 36.6478069654083 20.3120880965318  35.1251816385536 21.8347134233865  33.2469281115401 21.8347134233865  C 33.1653016191605 21.8347134233865  33.0837015858266 21.8317746755605  33.0022865602401 21.8259028898895  L 21 21.8259028898895  L 21 33.121049845818  C 21.7130113899826 33.2024648714044  21.7159501378087 33.2840649047383  21.7159501378087 33.3656913971179  C 21.7159501378087 35.2439449241314  20.193324810954 36.7665702509862  18.3150712839405 36.7665702509862  C 16.436817756927 36.7665702509862  14.9141924300723 35.2439449241314  14.9141924300723 33.3656913971179  C 14.9141924300723 33.2840649047383  14.9171311778984 33.2024648714044  15 33.121049845818  L 15 21  L 3.6278560076409 21  C 1.84914609075494 21.6095136637194  0.471618705072725 20.1290587557142  0.471618705072725 18.3457288306727  C 0.471618705072725 16.5623989056311  1.84914609075494 15.0819439976259  3.6278560076409 15  Z " fill-rule="nonzero" fill="#e6b300" stroke="none" fill-opacity="0.996078431372549" transform="matrix(1 0 0 1 710 359 )" />
  </g>
</svg>