<?xml version="1.0" encoding="utf-8"?>
<svg version="1.1" xmlns:xlink="http://www.w3.org/1999/xlink" width="50px" height="50px" xmlns="http://www.w3.org/2000/svg">
  <g transform="matrix(1 0 0 1 -1521 -15 )">
    <path d="M 45.833349609375 38.541650390625  C 45.625 38.541650390625  45.625 38.541650390625  45.833349609375 38.541650390625  C 46.25 37.708349609375  46.666650390625 37.083349609375  47.083349609375 36.25  C 47.291650390625 36.041650390625  47.291650390625 35.833349609375  47.291650390625 35.625  C 47.5 35  47.916650390625 34.375  48.125 33.75  C 48.333349609375 33.541650390625  48.333349609375 33.333349609375  48.333349609375 32.916650390625  C 48.541650390625 32.291650390625  48.75 31.666650390625  48.958349609375 31.25  C 48.958349609375 31.041650390625  49.166650390625 30.625  49.166650390625 30.416650390625  C 49.375 29.791650390625  49.375 29.166650390625  49.583349609375 28.541650390625  C 49.583349609375 28.333349609375  49.791650390625 27.916650390625  49.791650390625 27.708349609375  C 50 26.875  50 25.833349609375  50 25  C 50 11.25  38.75 0  25 0  C 11.25 0  0 11.25  0 25  C 0 25.833349609375  0 26.875  0.208349609375 27.708349609375  C 0.208349609375 27.916650390625  0.208349609375 28.333349609375  0.416650390625 28.541650390625  C 0.416650390625 29.166650390625  0.625 29.791650390625  0.625 30.416650390625  C 0.625 30.625  0.833349609375 31.041650390625  0.833349609375 31.25  C 1.041650390625 31.875  1.25 32.5  1.458349609375 32.916650390625  C 1.458349609375 33.125  1.666650390625 33.333349609375  1.666650390625 33.75  C 1.875 34.375  2.083349609375 35  2.5 35.625  C 2.5 35.833349609375  2.708349609375 36.041650390625  2.708349609375 36.25  C 3.125 37.083349609375  3.541650390625 37.708349609375  3.958349609375 38.541650390625  C 8.333349609375 45.416650390625  16.041650390625 50  24.791650390625 50  C 33.541650390625 50  41.25 45.416650390625  45.833349609375 38.541650390625  Z M 15.625 21.041650390625  C 15.625 16.041650390625  19.791650390625 11.875  24.791650390625 11.875  C 29.791650390625 11.875  33.958349609375 16.041650390625  33.958349609375 21.041650390625  C 33.958349609375 26.041650390625  29.791650390625 30.208349609375  24.791650390625 30.208349609375  C 19.791650390625 30.208349609375  15.625 26.041650390625  15.625 21.041650390625  Z M 24.791650390625 46.875  C 18.958349609375 46.666650390625  13.541650390625 44.375  9.583349609375 40.625  C 12.291650390625 34.583349609375  18.125 30.625  24.791650390625 30.625  C 31.45830078125 30.625  37.291650390625 34.583349609375  40 40.625  C 36.041650390625 44.375  30.625 46.875  24.791650390625 46.875  Z " fill-rule="nonzero" fill="#2d1800" stroke="none" transform="matrix(1 0 0 1 1521 15 )" />
  </g>
</svg>