<?xml version="1.0" encoding="utf-8"?>
<svg version="1.1" xmlns:xlink="http://www.w3.org/1999/xlink" width="149px" height="150px" xmlns="http://www.w3.org/2000/svg">
  <g transform="matrix(1 0 0 1 -887 -270 )">
    <path d="M 2.760152284264 63.4646739130435  L 61.3121827411168 5.09918478260869  C 67.1739267155838 -0.747101794470211  76.5314644449916 -1.19959571156727  82.9333756345177 4.05366847826087  L 84.0742385786803 5.09918478260869  L 142.626269035533 63.4646739130435  C 143.924441161218 64.7551621635711  144.654046625666 66.5075707063103  144.654046625666 68.3351072429432  C 144.654046625666 72.1339408652507  141.56464094953 75.2135039820736  137.753665915006 75.2135039820736  C 136.270846523002 75.2135039820736  134.827468876253 74.7373686231485  133.637373096447 73.8556385869565  L 132.864530456853 73.1861413043478  L 74.3125 14.8298233695652  C 73.5818803476178 14.1001926090436  72.4525765541173 13.9463461310434  71.552347715736 14.4538043478261  L 71.0555203045685 14.8206521739131  L 27 59.0625  L 27 120  L 61.1833756345178 120  C 61.1833756345178 120.674592391304  61.1833756345178 120.674592391304  61.1833756345178 120.674592391304  C 64.9943506690418 120.674592391304  68.0837563451777 123.754155508127  68.0837563451777 127.552989130435  C 68.0837563451777 131.351822752742  64.9943506690418 134.431385869565  61.1833756345178 134.431385869565  C 61.1833756345178 134.431385869565  61.1833756345178 134.431385869565  61.1833756345178 134  L 19.7810913705583 134  C 15.9701163360344 134.431385869565  12.8807106598985 131.351822752742  13 127.552989130435  L 13 72.8192934782609  L 12.5126903553299 73.1953125  C 11.217337655147 74.4950593959434  9.45532386321065 75.2259701854694  7.61736400391646 75.2259701854694  C 3.80638896939251 75.2259701854694  0.71698329325659 72.1464070686466  0.71698329325659 68.347573446339  C 0.71698329325659 66.8694060758339  1.19468696762988 65.4305606298725  2.07931472081214 64.2442255434783  L 2.760152284264 63.4646739130435  Z M 110.633420152628 95.4511289902223  C 110.633420152628 91.6522953679147  113.722825828763 88.5727322510919  117.533800863287 88.5727322510919  C 119.279672423396 88.5727322510919  120.960645238498 89.2324102522264  122.237944162437 90.4188179347826  L 138.51364213198 106.633491847826  C 141.2043616636 109.31897885968  141.2043616636 113.669472227277  138.51364213198 116.35495923913  L 122.247144670051 132.569633152174  C 120.969845746112 133.75604083473  119.28887293101 134.415718835865  117.543001370902 134.415718835865  C 113.732026336378 134.415718835865  110.642620660242 131.336155719042  110.642620660242 127.537322096734  C 110.642620660242 125.797012721131  111.304407051303 124.121395329166  112.494606598985 122.84816576087  L 117.140862944162 118  L 88.6192893401015 118  C 88.6192893401015 118.20754076087  88.6192893401015 118.20754076087  88.6192893401015 118.20754076087  C 84.8083143055775 118.20754076087  81.7189086294417 115.127977644047  81.7189086294417 111.329144021739  C 81.7189086294417 107.530310399432  84.8083143055775 104.450747282609  88.6192893401015 104.450747282609  C 88.6192893401015 104.450747282609  88.6192893401015 104.450747282609  88.6192893401015 104  L 116.800444162437 104  L 112.485406091371 100.140285326087  C 111.295206543689 98.8670557577909  110.633420152628 97.1914383658253  110.633420152628 95.4511289902223  Z M 73.5273359363026 111.85525924452  C 73.5273359363026 91.2546442563702  90.2274340213661 74.5545461713068  110.828049009516 74.5545461713068  C 131.428663997666 74.5545461713068  148.128762082729 91.2546442563702  148.128762082729 111.85525924452  C 148.094322287401 132.432954279497  131.421380598669 149.121529244963  110.843685563692 149.155969040291  C 90.2430705755419 149.155969040291  73.5273359363026 132.45587423267  73.5273359363026 111.85525924452  Z M 80.0960119329775 111.870891819155  C 80.0960119329775 128.843725516667  93.8552122137928 142.602925797483  110.828045911305 142.602925797483  C 127.800879608817 142.602925797483  141.560079889632 128.843725516667  141.560079889632 111.870891819155  C 141.542855441628 94.9113019752763  127.803264442509 81.1647192639221  110.843685563692 81.1388618203686  C 93.8708518661798 81.1388618203686  80.0960119329775 94.8980581216435  80.0960119329775 111.870891819155  Z " fill-rule="nonzero" fill="#810000" stroke="none" fill-opacity="0.996078431372549" transform="matrix(1 0 0 1 887 270 )" />
  </g>
</svg>