<?xml version="1.0" encoding="utf-8"?>
<svg version="1.1" xmlns:xlink="http://www.w3.org/1999/xlink" width="139px" height="150px" xmlns="http://www.w3.org/2000/svg">
  <g transform="matrix(1 0 0 1 -1147 -266 )">
    <path d="M 108.926879699248 81.796875  C 109.162030075188 78.984375  106.888909774436 76.5625  103.988721804511 76  L 35.0112781954887 76  C 32.2678571428571 76.5625  30.0731203007519 78.75  30.1515037593985 81.40625  C 30.1515037593985 83.984375  32.3462406015038 86.09375  35.0112781954887 86  L 103.753571428571 86  C 106.34022556391 86.171875  108.691729323308 84.296875  108.926879699248 81.796875  Z M 138 53.203125  L 138 38.4375  C 138.477443609023 27.8125  129.620112781955 19.21875  118.803195488722 20  L 104.067105263158 20  C 104.067105263158 19.21875  103.988721804511 19.21875  103.988721804511 19.140625  L 103.988721804511 9.6875  C 103.988721804511 9.6875  103.988721804511 9.609375  103.910338345865 10  L 90.7419172932331 10  L 90.6635338345865 9.609375  C 86.4308270676692 3.90625  78.5924812030075 0  69.5 0  C 60.4075187969925 0  52.5691729323308 3.90625  48.2580827067669 10  L 35.0896616541353 10  C 35.0896616541353 9.609375  35.0112781954887 9.609375  35.0112781954887 9.6875  L 35.0112781954887 19.21875  C 35.0112781954887 19.21875  35.0112781954887 19.296875  34.9328947368421 20  L 20.2751879699248 20  C 9.37988721804511 19.21875  0.522556390977444 27.8125  1 38.4375  L 1 130.703125  C 0.522556390977444 141.40625  9.37988721804511 150  20.2751879699248 150  L 118.724812030075 150  C 129.620112781955 150  138.477443609023 141.40625  138 130.78125  L 138 81.71875  L 138.477443609023 81.171875  C 138.477443609023 78.4375  136.282706766917 76.25  133.539285714286 76.25  C 130.795864661654 76.25  128.601127819549 78.4375  128 81.171875  L 128 125.546875  L 128.679511278195 125.546875  L 128.679511278195 130.78125  C 128.679511278195 136.09375  124.290037593985 140.390625  118.803195488722 140  L 20.2751879699248 140  C 14.7883458646617 140.390625  10.3988721804511 136.09375  11 130.703125  L 11 38.4375  C 10.3988721804511 33.125  14.8667293233083 28.75  20.2751879699248 29  L 34.9328947368421 29  C 34.9328947368421 28.75  35.0112781954887 28.75  35.0112781954887 28.828125  L 35.0112781954887 29.21875  L 45 29.21875  L 45 20  L 55.7828947368421 20  C 55.7828947368421 19.21875  55.8612781954887 19.21875  55.8612781954887 19.140625  C 55.8612781954887 13.828125  61.9751879699248 9.609375  69.5783834586466 9.609375  C 77.1031954887218 9.609375  83.2171052631579 13.90625  83.2954887218045 19.140625  C 83.2954887218045 19.140625  83.2954887218045 19.21875  83.3738721804511 20  L 94.1907894736842 20  C 94.1907894736842 19.21875  94.2691729323308 19.21875  94 19.296875  L 94 29.296875  L 103.988721804511 29.296875  L 103.988721804511 28.90625  C 103.988721804511 28.90625  103.988721804511 28.828125  104.067105263158 29  L 118.724812030075 29  C 124.211654135338 28.828125  128.601127819549 33.125  128 38.515625  L 128 53.203125  C 128.601127819549 55.9375  130.795864661654 58.125  133.539285714286 58.125  C 136.282706766917 58.125  138.477443609023 55.9375  138 53.203125  Z M 108.926879699248 105.859375  C 109.162030075188 102.96875  106.888909774436 100.625  103.988721804511 100  L 35.2464285714286 100  C 32.6597744360902 100.625  30.3082706766917 102.5  30.0731203007519 105  C 29.837969924812 107.8125  32.1110902255639 110.234375  35.0112781954887 110  L 103.753571428571 110  C 106.34022556391 110.234375  108.691729323308 108.359375  108.926879699248 105.859375  Z M 108.926879699248 57.8125  C 109.162030075188 55  106.888909774436 52.578125  103.988721804511 53  L 35.2464285714286 53  C 32.6597744360902 52.578125  30.3082706766917 54.453125  30.0731203007519 56.953125  C 29.837969924812 59.765625  32.1110902255639 62.1875  35.0112781954887 63  L 103.753571428571 63  C 106.34022556391 62.1875  108.691729323308 60.3125  108.926879699248 57.8125  Z " fill-rule="nonzero" fill="#2491ce" stroke="none" transform="matrix(1 0 0 1 1147 266 )" />
  </g>
</svg>