<?xml version="1.0" encoding="utf-8"?>
<svg version="1.1" xmlns:xlink="http://www.w3.org/1999/xlink" width="150px" height="108px" xmlns="http://www.w3.org/2000/svg">
  <g transform="matrix(1 0 0 1 -1387 -291 )">
    <path d="M 145 26.192030075188  L 145.861956521739 26.192030075188  C 133.270923913043 15.4001503759398  119.395923913043 14.5881203007519  119.395923913043 14.5881203007519  C 68.6788043478261 -17.9036390977444  34.5179347826087 14.5881203007519  34.5179347826087 14.5881203007519  C 15.2804347826087 15.0517894736842  3.97092391304348 26.192030075188  4 26.192030075188  L 4 56.0219548872181  C 1.72336956521739 59.088992481203  0.356249999999999 62.8324511278196  1 66.9234586466165  L 1 107  L 23 107  L 23 96  L 127 96  L 127 107  L 149 107  L 149 66.9234586466165  C 149.591576086957 62.7674887218045  148.17472826087 58.9744962406015  145 55.8839097744361  L 145 26.192030075188  Z M 12 49.9836992481203  L 12 28.8611729323308  C 23.325 21.085984962406  35.5671195652174 21.5504661654135  35.5671195652174 21.5504661654135  C 75.7907608695652 -12.1008721804511  118.579891304348 21.7827067669173  118.579891304348 21.7827067669173  C 133.732336956522 23.8428270676692  140.68777173913 31.9217142857143  138 29.9054436090225  L 138 49.9227969924812  C 136.048564654476 48.891279676197  133.507386367126 48.3576005515359  130.93777173913 48.3555789473684  L 123.18097826087 48.3555789473684  C 119.170108695652 40.0371428571428  110.664945652174 34.2741654135338  100.780434782609 34.2741654135338  C 90.8918478260869 34.2741654135338  82.3875 40.0363308270677  78.3766304347826 48.3555789473684  L 71.5711956521739 48.3555789473684  C 67.5595108695652 40.0371428571429  59.0551630434783 34.2741654135338  49.1673913043478 34.2741654135338  C 39.2828804347826 34.2741654135338  30.7752717391304 40.0363308270677  26.7676630434782 48.3555789473684  L 19.0108695652174 48.3555789473684  C 16.304347826087 48.3555789473684  13.7535326086957 48.9540451127819  12 49.9836992481203  Z M 100.780434782609 41.2381353383459  C 106.606793478261 41.2381353383459  111.736141304348 44.0550676691729  114.997826086957 49  L 86.560597826087 49  C 89.8214673913044 44.0550676691729  94.9516304347826 41.2381353383459  100.780434782609 41.2381353383459  Z M 49.1682065217391 41.2381353383459  C 54.9970108695652 41.2381353383459  60.1271739130435 44.0550676691729  63.3880434782609 49  L 34.9516304347826 49  C 38.2157608695652 44.0550676691729  43.341847826087 41.2381353383459  49.1682065217391 41.2381353383459  Z M 142.130706521739 69.8597593984962  L 142 69.8597593984962  L 142 100.342556390977  L 134 100.342556390977  L 134 89  L 16 89  L 16 100.342556390977  L 8 100.342556390977  L 8 66.9234586466165  L 7.8179347826087 66.9234586466165  C 7.8179347826087 60.7690827067669  12.8282608695652 55.7824060150376  19.0108695652174 55  L 130.93777173913 55  C 137.121195652174 55.7824060150376  142.130706521739 60.7690827067669  142.130706521739 66.9234586466165  L 142.130706521739 69.8597593984962  Z " fill-rule="nonzero" fill="#727c97" stroke="none" transform="matrix(1 0 0 1 1387 291 )" />
  </g>
</svg>