<?xml version="1.0" standalone="no"?><!DOCTYPE svg PUBLIC "-//W3C//DTD SVG 1.1//EN" "http://www.w3.org/Graphics/SVG/1.1/DTD/svg11.dtd"><svg t="1595320396253" class="icon" viewBox="0 0 1047 1024" version="1.1" xmlns="http://www.w3.org/2000/svg" p-id="4797" data-spm-anchor-id="a313x.7781069.0.i20" xmlns:xlink="http://www.w3.org/1999/xlink" width="204.4921875" height="200"><defs><style type="text/css"></style></defs><path d="M126.09118 550.438176v275.219089h87.783895l15.706859-54.188667 108.028292-18.062889 191.274648 4.537538s33.682488-4.537537 33.682489-20.244397 29.319472-129.319813 29.319471-129.319813l39.092629-68.23758z" fill="#ffffff" p-id="4798" data-spm-anchor-id="a313x.7781069.0.i17" class=""></path><path d="M177.836557 278.709501l61.082233-20.244397 51.745377-8.726033L340.315296 206.719727l78.534299-29.843033 66.841415-15.183298 108.639114 15.183298 41.274137 55.497571 55.497571 26.1781h65.270729l42.321261 52.356199 27.661525 37.260162s6.980827 31.762761 0 49.91291 0 78.097997 0 78.097998l-19.022752 32.897145h-58.028121l-49.214828 3.141372-83.682658 38.481806L148.342565 532.89885 138.133106 356.022156z" fill="#ffffff" p-id="4799" data-spm-anchor-id="a313x.7781069.0.i11" class="selected"></path><path d="M844.156455 520.944184V318.238432A42.146741 42.146741 0 0 0 832.027269 287.959097a179.058202 179.058202 0 0 0-124.433234-50.785514 104.014316 104.014316 0 0 0-11.867405 0.436302 268.587303 268.587303 0 0 0-418.064252-3.054112 8.115211 8.115211 0 0 1-6.544525 2.792331h-7.85343a178.360119 178.360119 0 0 0-113.438432 41.012356 64.136344 64.136344 0 0 0-23.64755 49.651129V520.944184a39.877972 39.877972 0 0 0-25.654538 38.307286v254.102088a38.830848 38.830848 0 0 0 37.521943 40.314273h65.61977a38.830848 38.830848 0 0 0 37.521943-40.314273v-16.143162A19.895356 19.895356 0 0 1 260.03579 776.616958h450.437836a19.633575 19.633575 0 0 1 18.673711 20.418918v24.869194a38.830848 38.830848 0 0 0 37.521943 40.314274h65.61977a38.830848 38.830848 0 0 0 37.521943-40.314274v-262.6536a40.488794 40.488794 0 0 0-25.654538-38.307286z m-671.904559-210.12288A143.194205 143.194205 0 0 1 246.510439 279.233063a108.377333 108.377333 0 0 1 16.753984-0.872603A137.260503 137.260503 0 0 1 279.233063 279.233063a20.418918 20.418918 0 0 0 18.848232-7.591648 219.459736 219.459736 0 0 1 21.553302-24.258373 231.414401 231.414401 0 0 1 331.589263 0 276.789774 276.789774 0 0 1 21.291521 24.258373 20.855219 20.855219 0 0 0 19.022753 7.591648 138.831189 138.831189 0 0 1 15.968641-0.872603c5.671922 0 10.994802 0 16.666723 0.872603a143.106945 143.106945 0 0 1 74.171283 31.850022 23.298509 23.298509 0 0 1 8.726033 17.975628v189.878483H164.223945l-0.436301-190.663826a22.862207 22.862207 0 0 1 8.376992-17.452066z m660.560716 490.839369a19.633575 19.633575 0 0 1-18.760972 20.418918h-28.185087a19.633575 19.633575 0 0 1-18.760971-20.418918V776.616958a48.865786 48.865786 0 0 0-2.879591-15.445079 37.609203 37.609203 0 0 0-34.904133-24.869195h-488.657861a37.609203 37.609203 0 0 0-34.904133 24.869195 46.684278 46.684278 0 0 0-2.006988 15.445079v25.305496c0 10.994802-8.726033 11.256583-18.760971 11.256583H157.068598c-10.209459 0-18.760971 0-18.760971-11.692884V579.670388A19.895356 19.895356 0 0 1 157.068598 559.25147h657.070303a19.633575 19.633575 0 0 1 18.760971 20.418918z" fill="#E6B300" p-id="4800" data-spm-anchor-id="a313x.7781069.0.i16" class=""></path><path d="M739.880358 691.887175m-189.703963 0a189.703963 189.703963 0 1 0 379.407925 0 189.703963 189.703963 0 1 0-379.407925 0Z" fill="#FCFCFC" p-id="4801" data-spm-anchor-id="a313x.7781069.0.i12" class=""></path><path d="M739.880358 899.915807a208.115893 208.115893 0 1 1 208.028632-208.028632 208.377674 208.377674 0 0 1-208.028632 208.028632z m0-379.495185a171.466553 171.466553 0 1 0 171.379293 171.466553 171.641074 171.641074 0 0 0-171.379293-171.466553z" fill="#E6B300" p-id="4802" data-spm-anchor-id="a313x.7781069.0.i13" class=""></path><path d="M723.039114 675.045931V619.54836a16.841244 16.841244 0 0 1 33.595228 0v55.933873h55.933873a16.841244 16.841244 0 1 1 0 33.595228h-55.933873v55.933873a16.841244 16.841244 0 1 1-33.595228 0v-56.370175h-55.933873a16.841244 16.841244 0 0 1 0-33.595228z" fill="#E6B300" p-id="4803" data-spm-anchor-id="a313x.7781069.0.i18" class=""></path></svg>