<?xml version="1.0" encoding="UTF-8"?>
<svg width="198px" height="184px" viewBox="0 0 198 184" version="1.1" xmlns="http://www.w3.org/2000/svg" xmlns:xlink="http://www.w3.org/1999/xlink">
    <title>checkin</title>
    <g id="wireframe" stroke="none" stroke-width="1" fill="none" fill-rule="evenodd">
        <g id="checkin" fill-rule="nonzero">
            <path d="M6,99.4883863 L6,166 L26.5164191,166 L30.1873487,152.90434 L55.4351885,148.53912 L100.138956,149.635697 C100.138956,149.635697 108.011061,148.53912 108.011061,144.743276 C108.011062,140.947433 114.863464,113.490831 114.863464,113.490831 L124,97 L6,99.4883863 Z" id="路径" fill="#FFFFFF"></path>
            <path d="M18.2463851,34.2759084 L32.4715931,29.3840286 L44.5223764,27.2754598 L56.0854382,16.8802152 L74.3749912,9.66890987 L89.9414331,6 L115.241982,9.66890987 L124.854158,23.0794078 L137.778775,29.4051145 L152.979426,29.4051145 L162.835463,42.0565276 L169.27745,51.0601167 C169.27745,51.0601167 170.903188,58.7353073 169.27745,63.1211306 C167.651712,67.5069538 169.27745,81.9928218 169.27745,81.9928221 L164.847314,89.9421266 L151.333366,89.9421266 L139.871913,90.7012114 L120.383378,100 L11.3776419,95.6985197 L9,52.9578287 L18.2463851,34.2759084 Z" id="路径" fill="#FFFFFF"></path>
            <path d="M173.024288,92.7465227 L173.024288,43.8907754 C173.067273,41.1643912 172.050339,38.5345767 170.202247,36.5929088 C162.452103,28.7735455 152.069535,24.3839326 141.25095,24.3526827 C140.32939,24.3332354 139.40751,24.3683448 138.489817,24.4578393 C126.734203,9.13611923 108.918039,0.146395518 90.0251546,0.00168990261 C71.1322706,-0.13955319 53.1912204,8.57957316 41.2207691,23.7217432 C40.8402635,24.1769063 40.2785895,24.4251573 39.6980852,24.3947454 L37.8708645,24.3947454 C28.2319279,24.4143912 18.9002196,27.9092821 11.4776768,34.2794639 C8.00204909,37.2101806 5.98196829,41.6038733 5.97571232,46.2462827 L5.97571232,92.7465227 C2.29626467,94.2000985 -0.0965882365,97.9013717 0.00679134925,101.97927 L0.00679134925,163.222463 C-0.0863988673,165.71213 0.78259125,168.137523 2.42125116,169.961336 C4.05991107,171.785149 6.33296166,172.856817 8.73684575,172.938931 L24.0042897,172.938931 C26.4081738,172.856817 28.6812244,171.785149 30.3198843,169.961336 C31.9585442,168.137523 32.8275343,165.71213 32.7343441,163.222463 L32.7343441,159.331669 C32.6422102,156.714187 34.5946407,154.504393 37.1196736,154.368279 L141.920931,154.368279 C144.428608,154.493221 146.368978,156.691104 146.265656,159.289607 L146.265656,165.283532 C146.172466,167.773199 147.041456,170.198592 148.680116,172.022405 C150.318776,173.846218 152.591826,174.917886 154.99571,175 L170.263154,175 C172.667038,174.917886 174.940089,173.846218 176.578749,172.022405 C178.217409,170.198592 179.086399,167.773199 178.993209,165.283532 L178.993209,101.97927 C179.054463,97.9141368 176.676302,94.2355897 173.024288,92.7465227 L173.024288,92.7465227 Z M16.6954069,42.1031136 C21.6308598,37.9019978 27.6281761,35.259261 33.9727936,34.489777 C35.2649529,34.3154414 36.5682135,34.2451265 37.8708645,34.2794639 C39.1122073,34.2747081 40.3527618,34.3449316 41.586213,34.489777 C43.2579648,34.7301063 44.9272962,34.0335985 45.9715427,32.6600527 C47.5015376,30.5856268 49.177687,28.6313839 50.9862483,26.8133467 C61.1216178,16.0313028 75.033,9.94966418 89.5609072,9.94966418 C104.088814,9.94966418 118.000197,16.0313028 128.135566,26.8133467 C129.895214,28.6607698 131.549292,30.6129902 133.089364,32.6600527 C134.154048,34.0300904 135.832569,34.7240073 137.515299,34.489777 C138.748819,34.3457779 139.989326,34.2755571 141.230648,34.2794639 C142.550307,34.2794639 143.788757,34.2794639 145.108416,34.489777 C151.452684,35.2801846 157.443394,37.9450192 162.3655,42.1662075 C163.636059,43.2211789 164.381506,44.8119291 164.395746,46.4986585 L164.395746,92.2628023 L14.8275812,92.2628023 L14.7260691,46.3093767 C14.7423841,44.6774818 15.4561757,43.1370301 16.6751045,42.1031136 L16.6954069,42.1031136 Z M170.384969,160.404267 C170.488089,163.010607 168.535674,165.211848 166.019942,165.325595 L159.46225,165.325595 C156.946518,165.211848 154.994102,163.010607 155.097223,160.404267 L155.097223,154.368279 C155.069182,153.098119 154.842932,151.841027 154.427242,150.645736 C153.191472,147.089158 149.954908,144.700318 146.306261,144.651811 L32.6125294,144.651811 C28.9638822,144.700318 25.7273185,147.089158 24.4915486,150.645736 C24.1357708,151.850743 23.9779224,153.109099 24.0245921,154.368279 L24.0245921,160.46736 C24.0245921,163.117306 21.9943469,163.1804 19.659565,163.1804 L13.1627802,163.1804 C10.7873933,163.1804 8.79775311,163.1804 8.79775311,160.362204 L8.79775311,106.900598 C8.72782043,104.306976 10.6620856,102.126199 13.1627802,101.97927 L166.040244,101.97927 C168.555976,102.093017 170.508392,104.294258 170.405271,106.900598 L170.384969,160.404267 Z" id="形状" fill="#E6B300"></path>
            <path d="M105,133.5 C104.998859,149.755191 113.384962,164.776112 126.999078,172.904048 C140.613194,181.031984 157.386806,181.031984 171.000922,172.904048 C184.615038,164.776112 193.001141,149.755191 193,133.5 C193.001141,117.244809 184.615038,102.223888 171.000922,94.0959521 C157.386806,85.968016 140.613194,85.968016 126.999078,94.0959521 C113.384962,102.223888 104.998859,117.244809 105,133.5 Z" id="路径" fill="#FCFCFC"></path>
            <path d="M149.521038,184 C129.901208,184.00847 112.209081,171.829649 104.697097,153.144301 C97.1851137,134.458954 101.333215,112.948295 115.206531,98.6459078 C129.079847,84.3435201 149.945186,80.0671275 168.069972,87.8114406 C186.194759,95.5557537 198.008216,113.79506 198,134.021688 C197.955212,161.604798 176.276654,183.953827 149.521038,184 L149.521038,184 Z M149.521038,92.8273184 C133.357472,92.8188437 118.7809,102.85015 112.589671,118.242756 C106.398441,133.635362 109.812103,151.35723 121.238562,163.143083 C132.665022,174.928936 149.853494,178.457195 164.787471,172.08232 C179.721448,165.707446 189.459236,150.685161 189.459236,134.021688 C189.436841,111.288422 171.572292,92.8619841 149.521038,92.8273184 L149.521038,92.8273184 Z" id="形状" fill="#E6B300"></path>
            <path d="M144.777836,130.072583 L144.777836,116.751589 C144.926771,114.637366 146.645556,113 148.715975,113 C150.786394,113 152.505179,114.637366 152.654114,116.751589 L152.654114,130.177308 L165.767607,130.177308 C167.242321,130.068417 168.652874,130.812194 169.42266,132.104598 C170.192447,133.397002 170.192447,135.021422 169.42266,136.313827 C168.652874,137.606231 167.242321,138.350008 165.767607,138.241117 L152.654114,138.241117 L152.654114,151.666835 C152.760473,153.176662 152.033993,154.6208 150.771645,155.408914 C149.509296,156.197029 147.922654,156.197029 146.660305,155.408914 C145.397957,154.6208 144.671477,153.176662 144.777836,151.666835 L144.777836,138.136392 L131.664343,138.136392 C129.599288,137.983911 128,136.224202 128,134.104488 C128,131.984773 129.599288,130.225064 131.664343,130.072583 L144.777836,130.072583 Z" id="路径" fill="#E6B300"></path>
        </g>
    </g>
</svg>