<?xml version="1.0" standalone="no"?><!DOCTYPE svg PUBLIC "-//W3C//DTD SVG 1.1//EN" "http://www.w3.org/Graphics/SVG/1.1/DTD/svg11.dtd"><svg t="1595320119904" class="icon" viewBox="0 0 1024 1024" version="1.1" xmlns="http://www.w3.org/2000/svg" p-id="3670" xmlns:xlink="http://www.w3.org/1999/xlink" width="200" height="200"><defs><style type="text/css"></style></defs><path d="M648.533333 938.666667H96.711111c-51.2 0-96.711111-45.511111-96.711111-96.711111V199.111111c0-51.2 45.511111-96.711111 96.711111-96.711111h779.377778c51.2 0 96.711111 45.511111 96.711111 96.711111v432.355556H910.222222V199.111111c0-17.066667-17.066667-34.133333-34.133333-34.133333H96.711111c-17.066667 0-34.133333 17.066667-34.133333 34.133333v642.844445c0 17.066667 17.066667 34.133333 34.133333 34.133333h551.822222v62.577778z m142.222223 56.888889c-62.577778 0-119.466667-22.755556-164.977778-68.266667-45.511111-45.511111-68.266667-102.4-68.266667-164.977778s22.755556-119.466667 68.266667-164.977778c45.511111-45.511111 102.4-68.266667 164.977778-68.266666s119.466667 22.755556 164.977777 68.266666c45.511111 45.511111 68.266667 102.4 68.266667 164.977778s-22.755556 119.466667-68.266667 164.977778c-45.511111 45.511111-102.4 68.266667-164.977777 68.266667z m0-409.6c-96.711111 0-176.355556 79.644444-176.355556 176.355555s79.644444 176.355556 176.355556 176.355556c96.711111 0 176.355556-79.644444 176.355555-176.355556s-79.644444-176.355556-176.355555-176.355555z m34.133333 221.866666c-11.377778 0-28.444444-5.688889-34.133333-17.066666-11.377778-11.377778-17.066667-22.755556-17.066667-34.133334v-68.266666c0-17.066667 11.377778-28.444444 28.444444-28.444445h5.688889c17.066667 0 28.444444 11.377778 28.444445 28.444445v56.888888h56.888889c17.066667 0 28.444444 11.377778 28.444444 28.444445v5.688889c0 17.066667-11.377778 28.444444-28.444444 28.444444h-68.266667zM278.755556 256c-11.377778 0-28.444444-11.377778-28.444445-28.444444V56.888889c0-17.066667 11.377778-28.444444 28.444445-28.444445s28.444444 11.377778 28.444444 28.444445v170.666667c5.688889 17.066667-11.377778 28.444444-28.444444 28.444444z m443.733333 0c-17.066667 0-28.444444-11.377778-28.444445-28.444444V56.888889c0-17.066667 11.377778-28.444444 28.444445-28.444445s28.444444 11.377778 28.444444 28.444445v170.666667c5.688889 17.066667-11.377778 28.444444-28.444444 28.444444zM28.444444 312.888889h921.6v62.577778H28.444444V312.888889z m432.355556 250.311111H193.422222c-17.066667 0-28.444444-11.377778-28.444444-28.444444s11.377778-28.444444 28.444444-28.444445h267.377778c17.066667 0 28.444444 11.377778 28.444444 28.444445 0 11.377778-17.066667 28.444444-28.444444 28.444444z m-73.955556 113.777778H193.422222c-17.066667 0-28.444444-11.377778-28.444444-28.444445s11.377778-28.444444 28.444444-28.444444h193.422222c17.066667 0 28.444444 11.377778 28.444445 28.444444s-11.377778 28.444444-28.444445 28.444445z" p-id="3671" fill="#4CA6A0"></path></svg>