<?xml version="1.0" encoding="utf-8"?>
<svg version="1.1" xmlns:xlink="http://www.w3.org/1999/xlink" width="145px" height="28px" xmlns="http://www.w3.org/2000/svg">
  <defs>
    <mask fill="white" id="clip6">
      <path d="M 0 22  L 0 6  C 0 2.63999999999999  2.6400000000001 0  6 0  L 139 0  C 142.36 0  145 2.63999999999999  145 6  L 145 22  C 145 25.36  142.36 28  139 28  L 111.476190476192 28  L 6 28  C 2.6400000000001 28  0 25.36  0 22  Z " fill-rule="evenodd" />
    </mask>
  </defs>
  <g transform="matrix(1 0 0 1 -1186 -171 )">
    <path d="M 0 22  L 0 6  C 0 2.63999999999999  2.6400000000001 0  6 0  L 139 0  C 142.36 0  145 2.63999999999999  145 6  L 145 22  C 145 25.36  142.36 28  139 28  L 111.476190476192 28  L 6 28  C 2.6400000000001 28  0 25.36  0 22  Z " fill-rule="nonzero" fill="#ffffff" stroke="none" transform="matrix(1 0 0 1 1186 171 )" />
    <path d="M 0 22  L 0 6  C 0 2.63999999999999  2.6400000000001 0  6 0  L 139 0  C 142.36 0  145 2.63999999999999  145 6  L 145 22  C 145 25.36  142.36 28  139 28  L 111.476190476192 28  L 6 28  C 2.6400000000001 28  0 25.36  0 22  Z " stroke-width="2" stroke="#cccccc" fill="none" transform="matrix(1 0 0 1 1186 171 )" mask="url(#clip6)" />
  </g>
</svg>