<?xml version="1.0" standalone="no"?><!DOCTYPE svg PUBLIC "-//W3C//DTD SVG 1.1//EN" "http://www.w3.org/Graphics/SVG/1.1/DTD/svg11.dtd"><svg t="1595324463611" class="icon" viewBox="0 0 1024 1024" version="1.1" xmlns="http://www.w3.org/2000/svg" p-id="10744" xmlns:xlink="http://www.w3.org/1999/xlink" width="200" height="200"><defs><style type="text/css"></style></defs><path d="M512 0c-282.624 0-512 229.376-512 512s229.376 512 512 512 512-229.376 512-512c0-283.136-229.376-512-512-512z m0 938.496c-236.032 0-427.008-190.976-427.008-427.008 0-236.032 190.976-427.008 427.008-427.008s427.008 190.976 427.008 427.008c0 236.032-190.976 427.008-427.008 427.008z m221.184-474.624l-163.328-162.816c-8.192-8.192-22.016-8.192-30.208 0l-30.208 30.208c-8.192 8.192-8.192 21.504 0 30.208l103.936 103.936c-5.632 0.512-10.752 1.536-16.384 1.536-16.896 0-32.256 1.536-48.64 2.56h-250.368c-23.552 0-42.496 18.944-42.496 42.496s18.944 42.496 42.496 42.496h313.344l-102.4 102.4c-8.192 8.192-8.192 21.504 0 30.208l30.208 30.208c8.192 8.192 22.016 8.192 30.208 0l163.328-162.816 30.208-29.696c8.192-8.192 8.192-21.504 0-30.208l-29.696-30.72z" p-id="10745" fill="#ffffff"></path></svg>